
<svg width="35px" height="35px" viewBox="0 0 35 35" version="1.1" xmlns="http://www.w3.org/2000/svg" xmlns:xlink="http://www.w3.org/1999/xlink">
    <g id="Symbols" stroke="none" stroke-width="1" fill="none" fill-rule="evenodd">
        <g id="Social-Share" transform="translate(-211.000000, 0.000000)" fill="#FFFFFF">
            <g id="Combined-Shape">
                <path d="M228.5,35 C218.835017,35 211,27.1649831 211,17.5 C211,7.83501688 218.835017,0 228.5,0 C238.164983,0 246,7.83501688 246,17.5 C246,27.1649831 238.164983,35 228.5,35 Z M233.68099,25.5559896 C233.501302,24.0166667 233.207813,22.4354167 232.788542,20.8302083 C232.584896,20.0515625 232.351302,19.296875 232.09974,18.5601563 C233.980469,18.4044271 236.232552,18.4283854 238.023438,18.5601563 C237.7,21.5010417 236.046875,24.0286458 233.68099,25.5559896 Z M228.5,27.0833333 C226.283854,27.0833333 224.247396,26.3286458 222.624219,25.0648437 C223.9,22.5372396 226.176042,20.446875 229.045052,19.1471354 C229.314583,19.0213542 229.673958,18.9195312 230.08724,18.8296875 C230.428646,19.7760417 230.734115,20.7583333 231.003646,21.7765625 C231.416927,23.3638021 231.710417,24.9330729 231.890104,26.4544271 C230.835938,26.8557292 229.697917,27.0833333 228.5,27.0833333 Z M218.934635,17.0447917 C219.479688,17.06875 220.030729,17.0807292 220.58776,17.0747396 C223.60651,17.0388021 226.415625,16.565625 228.829427,15.7929688 C229.057031,16.2661458 229.272656,16.7513021 229.476302,17.2484375 C229.146875,17.3263021 228.853385,17.4101562 228.619792,17.5059896 C225.319531,18.8895833 222.720052,21.1236979 221.3125,23.825 C219.827083,22.1359375 218.916667,19.9257812 218.916667,17.5 C218.916667,17.3442708 218.922656,17.1945313 218.934635,17.0447917 Z M224.163542,8.96484375 C225.547135,10.3424479 226.846875,12.0973958 227.984896,14.1518229 C225.822656,14.8106771 223.342969,15.1880208 220.695573,15.1880208 C220.192448,15.1880208 219.701302,15.1700521 219.216146,15.1401042 C219.904948,12.4388021 221.731771,10.1986979 224.163542,8.96484375 Z M228.5,7.91666667 C230.823958,7.91666667 232.95625,8.74322917 234.615365,10.1208333 C233.573177,11.4385417 231.938021,12.5825521 229.901563,13.4510417 C228.7875,11.390625 227.505729,9.61770833 226.140104,8.22213542 C226.900781,8.03046875 227.685417,7.91666667 228.5,7.91666667 Z M235.801302,11.3007812 C237.095052,12.8221354 237.915625,14.7507812 238.059375,16.8651042 C235.986979,16.7572917 233.507292,16.7572917 231.51875,16.9429687 C231.267187,16.3080729 231.009635,15.6851562 230.728125,15.0861979 C233.022135,14.0919271 234.789062,12.7861979 235.801302,11.3007812 Z M228.5,6 C222.151042,6 217,11.1510417 217,17.5 C217,23.8549479 222.151042,29 228.5,29 C234.848958,29 240,23.8549479 240,17.5 C240,11.1510417 234.848958,6 228.5,6 Z"></path>
            </g>
        </g>
    </g>
</svg>
