<svg width="35px" height="35px" viewBox="0 0 35 35" version="1.1" xmlns="http://www.w3.org/2000/svg" xmlns:xlink="http://www.w3.org/1999/xlink">
    <g id="Social-Share" stroke="none" stroke-width="1" fill="none" fill-rule="evenodd" transform="translate(-55.000000, 0.000000)">
        <g fill="#FFFFFF" id="Group">
            <g transform="translate(55.000000, 0.000000)">
                <path d="M17.5,35 C7.83501688,35 0,27.1649831 0,17.5 C0,7.83501688 7.83501688,0 17.5,0 C27.1649831,0 35,7.83501688 35,17.5 C35,27.1649831 27.1649831,35 17.5,35 Z M22.7734515,7.29015627 C22.4419779,7.24104907 21.3002355,7.14283466 19.9743411,7.14283466 C17.1997842,7.14283466 15.2968801,8.83703311 15.2968801,11.9430636 L15.2968801,14.6194061 L12.166296,14.6194061 L12.166296,18.253339 L15.2968801,18.253339 L15.2968801,27.5714304 L19.053581,27.5714304 L19.053581,18.253339 L22.1718883,18.253339 L22.6506835,14.6194061 L19.053581,14.6194061 L19.053581,12.2990908 C19.053581,11.2555628 19.3359474,10.5312316 20.8459939,10.5312316 L22.7734515,10.5312316 L22.7734515,7.29015627 Z" id="Combined-Shape"></path>
            </g>
        </g>
    </g>
</svg>
