<svg width="120px" height="69px" viewBox="0 0 120 69" version="1.1" xmlns="http://www.w3.org/2000/svg" xmlns:xlink="http://www.w3.org/1999/xlink">
    <defs>
        <linearGradient x1="0%" y1="0%" x2="100%" y2="0%" id="linearGradient-1">
            <stop stop-color="#FFFFFF" stop-opacity="0.1" offset="0%"></stop>
            <stop stop-color="#FFFFFF" stop-opacity="0.8" offset="100%"></stop>
        </linearGradient>
        <linearGradient x1="9.88294876%" y1="0%" x2="36.3661188%" y2="100%" id="linearGradient-2">
            <stop stop-color="#4346BF" stop-opacity="0.9" offset="0%"></stop>
            <stop stop-color="#4346BF" stop-opacity="0" offset="100%"></stop>
        </linearGradient>
        <path d="M110.740373,57.9831933 C107.544573,57.9831933 104.977007,56.9615844 103.037675,54.9183673 L106.356391,50.5696279 C107.749432,51.756903 109.197102,52.3505402 110.699401,52.3505402 C111.65541,52.3505402 112.133414,52.0882355 112.133414,51.5636255 C112.133414,51.3979592 112.078786,51.2460982 111.969527,51.1080432 C111.860269,50.9699882 111.716868,50.8595438 111.539323,50.7767107 C111.361779,50.6938776 111.095462,50.5834332 110.740373,50.4453782 L108.691783,49.6170468 C106.643193,48.7887155 105.134065,47.9051623 104.164399,46.9663866 C103.194733,46.0276108 102.7099,44.7436973 102.7099,43.1146459 C102.7099,40.9885956 103.502022,39.3112247 105.086265,38.082533 C106.670508,36.8538413 108.70544,36.2394958 111.191063,36.2394958 C115.069727,36.2394958 118.006039,37.5648259 120,40.2154862 L116.722256,44.439976 C114.974126,42.7280914 113.089423,41.8721489 111.068148,41.8721489 C109.866308,41.8721489 109.265388,42.1758701 109.265388,42.7833133 C109.265388,43.1422571 109.661449,43.487395 110.453571,43.8187275 L112.747991,44.7713085 C114.769267,45.5996399 116.264737,46.5108043 117.234404,47.5048019 C118.20407,48.4987995 118.688902,49.8103243 118.688902,51.4393758 C118.688902,53.4825928 117.965067,55.0840336 116.517397,56.2436975 C115.069727,57.4033613 113.144052,57.9831933 110.740373,57.9831933 Z M87.9613329,42.6176471 C87.7155021,42.6176471 86.8550943,42.6452583 85.3801095,42.7004802 L85.3801095,36.7364946 C86.7458359,36.4051621 88.1252201,36.2394958 89.5182613,36.2394958 C92.413602,36.2394958 94.6397362,36.9435774 96.1966646,38.3517407 C97.753593,39.759904 98.5320572,41.8583435 98.5320572,44.6470588 L98.5320572,51.4807923 L101.645914,51.4807923 L101.645914,57.4447779 L98.5320572,57.4447779 L98.5320572,62.4147659 L91.4849077,62.4147659 L91.4849077,57.4447779 L85.9946865,57.4447779 L85.9946865,51.4807923 L91.4849077,51.4807923 L91.4849077,45.3511405 C91.4849077,44.3571429 91.218591,43.6530612 90.6859576,43.2388956 C90.1533242,42.8247299 89.2451157,42.6176471 87.9613329,42.6176471 Z M62.1913511,57.4447779 L62.1913511,46.3865546 C62.1913511,43.3493399 63.1268737,40.8988595 64.9979194,39.035114 C66.8689651,37.1713685 69.2658154,36.2394958 72.1884703,36.2394958 C75.1111251,36.2394958 77.5148043,37.1713685 79.3995071,39.035114 C81.2842098,40.8988595 82.2265612,43.3493399 82.2265612,46.3865546 L82.2265612,57.4447779 L75.1794117,57.4447779 L75.1794117,45.8067227 C75.1794117,44.9231695 74.8994379,44.1983796 74.3394898,43.6323529 C73.7795416,43.0663263 73.0625351,42.7833133 72.1884703,42.7833133 C71.3417195,42.7833133 70.6383707,43.0663263 70.0784226,43.6323529 C69.5184744,44.1983796 69.2385007,44.9231695 69.2385007,45.8067227 L69.2385007,57.4447779 L62.1913511,57.4447779 Z M44.0011523,67.7989196 L36.9540028,67.7989196 L36.9540028,36.7364946 L43.3865753,36.7364946 L43.3865753,38.8901561 C44.6703582,37.123049 46.6233475,36.2394958 49.2455427,36.2394958 C52.1135687,36.2394958 54.4694472,37.2472987 56.3131782,39.2629052 C58.1569092,41.2785116 59.0787747,43.8739494 59.0787747,47.0492197 C59.0787747,50.22449 58.1569092,52.8337337 56.3131782,54.8769508 C54.4694472,56.9201679 52.1135687,57.9417767 49.2455427,57.9417767 C47.0876944,57.9417767 45.3395647,57.3067229 44.0011523,56.0366146 L44.0011523,67.7989196 Z M47.8525015,42.7004802 C46.75992,42.7004802 45.8243974,43.0732293 45.0459332,43.8187275 C44.267469,44.5642257 43.8782369,45.6410564 43.8782369,47.0492197 C43.8782369,48.457383 44.267469,49.548019 45.0459332,50.3211285 C45.8243974,51.0942379 46.75992,51.4807923 47.8525015,51.4807923 C48.9450831,51.4807923 49.8874345,51.0942379 50.6795557,50.3211285 C51.471677,49.548019 51.8677379,48.4711883 51.8677379,47.0906363 C51.8677379,45.7100842 51.4785058,44.6332535 50.7000416,43.8601441 C49.9215774,43.0870346 48.9723972,42.7004802 47.8525015,42.7004802 Z M29.1706411,69 C27.9688019,69 26.9445069,68.5927373 26.0977562,67.7782113 C25.2510054,66.9636853 24.8276304,65.9627853 24.8276304,64.7755102 C24.8276304,63.6158463 25.2510054,62.6287517 26.0977562,61.8142257 C26.9445069,60.9996997 27.9688019,60.592437 29.1706411,60.592437 C30.3724804,60.592437 31.3899472,60.9927973 32.2230402,61.7935174 C33.0561333,62.5942375 33.4726801,63.5882351 33.4726801,64.7755102 C33.4726801,65.9627853 33.0561333,66.9636853 32.2230402,67.7782113 C31.3899472,68.5927373 30.3724804,69 29.1706411,69 Z M25.6060946,57.4447779 L25.6060946,36.7364946 L32.6532441,36.7364946 L32.6532441,57.4447779 L25.6060946,57.4447779 Z M11.1853014,57.9417767 C8.09875932,57.9417767 5.46290644,56.8994596 3.27774399,54.8148259 C1.09258154,52.7301923 -4.73316543e-30,50.1554622 -4.73316543e-30,47.0906363 C-4.73316543e-30,44.0258103 1.09258154,41.4510802 3.27774399,39.3664466 C5.46290644,37.2818129 8.09875932,36.2394958 11.1853014,36.2394958 C14.2991582,36.2394958 16.9350104,37.2818129 19.0928587,39.3664466 C21.2507071,41.4510802 22.3296309,44.0258103 22.3296309,47.0906363 C22.3296309,50.1554622 21.2507071,52.7301923 19.0928587,54.8148259 C16.9350104,56.8994596 14.2991582,57.9417767 11.1853014,57.9417767 Z M11.1443296,51.3979592 C12.3188547,51.3979592 13.2748632,50.9975988 14.0123556,50.1968788 C14.749848,49.3961587 15.1185942,48.3607445 15.1185942,47.0906363 C15.1185942,45.7929174 14.749848,44.7506002 14.0123556,43.9636855 C13.2748632,43.1767707 12.3188547,42.7833133 11.1443296,42.7833133 C10.0244339,42.7833133 9.08891073,43.1836737 8.33776127,43.9843938 C7.58661182,44.7851138 7.21103678,45.820528 7.21103678,47.0906363 C7.21103678,48.3331333 7.58661182,49.3616444 8.33776127,50.1761705 C9.08891073,50.9906965 10.0244339,51.3979592 11.1443296,51.3979592 Z" id="path-3"></path>
        <linearGradient x1="4.83594738%" y1="0%" x2="94.8211442%" y2="100%" id="linearGradient-4">
            <stop stop-color="#FFFFFF" offset="0%"></stop>
            <stop stop-color="#FFFFFF" offset="57.7941809%"></stop>
            <stop stop-color="#FFFFFF" stop-opacity="0.8" offset="100%"></stop>
        </linearGradient>
    </defs>
    <g id="Symbols" stroke="none" stroke-width="1" fill="none" fill-rule="evenodd">
        <g id="Logo-Copy">
            <g id="Group">
                <g id="studio">
                    <use fill="url(#linearGradient-1)" xlink:href="#path-3"></use>
                    <use fill="url(#linearGradient-2)" xlink:href="#path-3"></use>
                </g>
                <path d="M13.0956037,11.0582233 C15.4719681,11.0582233 17.370328,11.8244298 18.7906839,13.3568427 C20.2110398,14.8892557 20.9212175,16.9393758 20.9212175,19.5072029 L20.9212175,32.2635054 L13.8740679,32.2635054 L13.8740679,20.542617 C13.8740679,19.6314526 13.5940942,18.8928574 13.034146,18.3268307 C12.4741979,17.7608041 11.7571914,17.4777911 10.8831265,17.4777911 C10.0090617,17.4777911 9.29888339,17.7608041 8.75259293,18.3268307 C8.20630248,18.8928574 7.93315693,19.6314526 7.93315693,20.542617 L7.93315693,32.2635054 L0.886007357,32.2635054 L0.886007357,11.5552221 L7.31857994,11.5552221 L7.31857994,13.2533013 C8.84819359,11.7899162 10.7738682,11.0582233 13.0956037,11.0582233 Z M29.0528394,-1.77635684e-15 C30.2546786,-1.77635684e-15 31.2789736,0.407262695 32.1257244,1.22178872 C32.9724751,2.03631474 33.3958502,3.03721468 33.3958502,4.2244898 C33.3958502,5.38415366 32.9724751,6.37124829 32.1257244,7.18577431 C31.2789736,8.00030033 30.2546786,8.40756303 29.0528394,8.40756303 C27.8510001,8.40756303 26.8335334,8.00720267 26.0004403,7.20648259 C25.1673472,6.40576252 24.7508004,5.41176492 24.7508004,4.2244898 C24.7508004,3.03721468 25.1673472,2.03631474 26.0004403,1.22178872 C26.8335334,0.407262695 27.8510001,-1.77635684e-15 29.0528394,-1.77635684e-15 Z M32.617386,11.5552221 L32.617386,32.2635054 L25.5702364,32.2635054 L25.5702364,11.5552221 L32.617386,11.5552221 Z M47.5912985,11.0582233 C49.6945173,11.0582233 51.5382483,11.5552221 53.1224914,12.5492197 C54.7067346,13.5432173 55.9222309,14.8961587 56.7689816,16.6080432 L51.8933374,20.3769508 C50.7188123,18.5270106 49.3121141,17.6020408 47.6732421,17.6020408 C46.4440881,17.6020408 45.4607649,18.0024012 44.7232725,18.8031212 C43.9857801,19.6038413 43.6170339,20.6392555 43.6170339,21.9093637 C43.6170339,23.179472 43.9857801,24.2148862 44.7232725,25.0156062 C45.4607649,25.8163263 46.4440881,26.2166867 47.6732421,26.2166867 C49.3121141,26.2166867 50.7188123,25.3055222 51.8933374,23.4831933 L56.7689816,27.2106843 C55.9222309,28.9225688 54.7067346,30.2755102 53.1224914,31.2695078 C51.5382483,32.2635054 49.6945173,32.7605042 47.5912985,32.7605042 C44.4501269,32.7605042 41.8006176,31.7181871 39.6427693,29.6335534 C37.484921,27.5489198 36.4059971,24.9741897 36.4059971,21.9093637 C36.4059971,18.8445378 37.484921,16.2698077 39.6427693,14.1851741 C41.8006176,12.1005404 44.4501269,11.0582233 47.5912985,11.0582233 Z M79.6094797,20.8739496 C79.6094797,22.1164466 79.4592495,23.2899158 79.1587899,24.3943577 L66.0478139,24.3943577 C66.8126211,25.9681873 68.3422347,26.755102 70.6366555,26.755102 C72.4667294,26.755102 74.255831,26.2166867 76.0039613,25.1398559 L78.5442129,29.9855942 C76.1132196,31.8355344 73.3954232,32.7605042 70.3908247,32.7605042 C67.0311371,32.7605042 64.2723695,31.731993 62.1145211,29.67497 C59.9566728,27.617947 58.8777489,25.0294116 58.8777489,21.9093637 C58.8777489,18.8445378 59.9293587,16.2698077 62.0325775,14.1851741 C64.1357964,12.1005404 66.7306775,11.0582233 69.8172195,11.0582233 C72.7671891,11.0582233 75.1367247,12.0108043 76.9258268,13.9159664 C78.7149289,15.8211285 79.6094797,18.1404562 79.6094797,20.8739496 Z M69.5304169,16.6494598 C68.6563521,16.6494598 67.8847161,16.9186675 67.2155102,17.4570828 C66.5463044,17.9954982 66.0751287,18.7617047 65.8019831,19.7557023 L72.9310763,19.7557023 C72.9037616,18.8169266 72.5623301,18.064526 71.9067813,17.4984994 C71.2512325,16.9324728 70.4591113,16.6494598 69.5304169,16.6494598 Z M94.9931102,11.2238896 C95.7306026,11.2238896 96.3998084,11.3343339 97.0007284,11.5552221 L97.0007284,17.8505402 L95.3208846,17.8505402 C93.7093273,17.8505402 92.4938304,18.2439976 91.6743944,19.0309124 C90.8549584,19.8178271 90.4452404,21.0810324 90.4452404,22.8205282 L90.4452404,32.2635054 L83.3980908,32.2635054 L83.3980908,11.5552221 L89.8306634,11.5552221 L89.8306634,13.7503001 C91.141761,12.0660262 92.8625766,11.2238896 94.9931102,11.2238896 Z" id="nicer" fill="url(#linearGradient-4)"></path>
            </g>
        </g>
    </g>
</svg>
