<svg width="35px" height="35px" viewBox="0 0 35 35" version="1.1" xmlns="http://www.w3.org/2000/svg" xmlns:xlink="http://www.w3.org/1999/xlink">
    <g id="Social-Share" stroke="none" stroke-width="1" fill="none" fill-rule="evenodd" transform="translate(-110.000000, 0.000000)">
        <g fill="#FFFFFF" id="Combined-Shape">
            <path d="M127.5,35 C117.835017,35 110,27.1649831 110,17.5 C110,7.83501688 117.835017,0 127.5,0 C137.164983,0 145,7.83501688 145,17.5 C145,27.1649831 137.164983,35 127.5,35 Z M135.656276,6.27787947 C135.533508,6.19194186 135.373909,6.14283466 135.214311,6.14283466 C135.079266,6.14283466 134.944221,6.17966506 134.821453,6.25332587 L114.392858,18.0390542 C114.135045,18.1863758 113.987723,18.4687422 114,18.7633854 C114.024554,19.0703054 114.208706,19.3281182 114.491072,19.4386094 L119.340408,21.4274511 L132.464308,10.0714108 L121.857152,23.0725423 L121.857152,27.3571457 C121.857152,27.6886193 122.065858,27.9832625 122.372778,28.0937537 C122.458715,28.1305841 122.55693,28.1428609 122.642867,28.1428609 C122.876127,28.1428609 123.097109,28.0446465 123.244431,27.8604945 L126.215416,24.2388384 L131.776807,26.5100464 C131.875021,26.5468768 131.973236,26.5714304 132.07145,26.5714304 C132.206495,26.5714304 132.34154,26.5346 132.452031,26.473216 C132.660737,26.350448 132.808058,26.1540192 132.844889,25.92076 L135.987749,7.06359469 C136.036857,6.75667468 135.914089,6.46203147 135.656276,6.27787947 Z"></path>
        </g>
    </g>
</svg>
