<svg width="35px" height="35px" viewBox="0 0 35 35" version="1.1" xmlns="http://www.w3.org/2000/svg" xmlns:xlink="http://www.w3.org/1999/xlink">
    <g id="Symbols" stroke="none" stroke-width="1" fill="none" fill-rule="evenodd">
        <g id="Social-Share" transform="translate(-163.000000, 0.000000)" fill="#FFFFFF">
            <g id="Combined-Shape">
                <path d="M180.5,35 C170.835017,35 163,27.1649831 163,17.5 C163,7.83501688 170.835017,0 180.5,0 C190.164983,0 198,7.83501688 198,17.5 C198,27.1649831 190.164983,35 180.5,35 Z M171.687337,11.6722251 L171.687337,21.6993226 C171.752996,22.0604482 171.635748,22.4309536 171.382491,22.6935904 L169,25.587285 L169,25.9624805 L175.753517,25.9624805 L175.753517,25.582642 L173.371027,22.6935904 C173.11308,22.4309536 172.991141,22.065185 173.042731,21.6993226 L173.042731,13.0276186 L178.970818,25.9671704 L179.66024,25.9671704 L184.758207,13.0276186 L184.758207,23.3361126 C184.758207,23.6081292 184.758207,23.6644085 184.57999,23.8426264 L182.746222,25.6201146 L182.746222,26 L191.643043,26 L191.643043,25.6201146 L189.874935,23.8848359 C189.720167,23.7675873 189.640438,23.5706097 189.673267,23.3783689 L189.673267,10.621678 C189.640438,10.4293903 189.720167,10.2324127 189.874935,10.1151641 L191.685253,8.37988536 L191.685253,8 L185.414799,8 L180.945284,19.1479937 L175.861386,8 L169.286087,8 L169.286087,8.37988536 L171.401251,10.9312142 C171.607608,11.1188119 171.715477,11.3955185 171.687337,11.6722251 Z"></path>
            </g>
        </g>
    </g>
</svg>
