<svg width="38px" height="17px" viewBox="0 0 38 17" version="1.1" xmlns="http://www.w3.org/2000/svg" xmlns:xlink="http://www.w3.org/1999/xlink">
    <g id="Page-1" stroke="none" stroke-width="1" fill="none" fill-rule="evenodd">
        <g id="00---Home" transform="translate(-200.000000, -49.000000)" fill="#FFFFFF">
            <g id="Header" transform="translate(200.000000, 46.000000)">
                <path d="M1,3 L29,3 C29.5522847,3 30,3.44771525 30,4 L30,9 C30,9.55228475 29.5522847,10 29,10 L1,10 C0.44771525,10 6.76353751e-17,9.55228475 0,9 L0,4 C-6.76353751e-17,3.44771525 0.44771525,3 1,3 Z M1,13 L37,13 C37.5522847,13 38,13.4477153 38,14 L38,19 C38,19.5522847 37.5522847,20 37,20 L1,20 C0.44771525,20 6.76353751e-17,19.5522847 0,19 L0,14 C-6.76353751e-17,13.4477153 0.44771525,13 1,13 Z" id="Combined-Shape"></path>
            </g>
        </g>
    </g>
</svg>
