<?xml version="1.0" encoding="UTF-8"?>
<svg width="35px" height="35px" viewBox="0 0 35 35" version="1.1" xmlns="http://www.w3.org/2000/svg" xmlns:xlink="http://www.w3.org/1999/xlink">
    <!-- Generator: Sketch 48.2 (47327) - http://www.bohemiancoding.com/sketch -->
    <title>Group 2</title>
    <desc>Created with Sketch.</desc>
    <defs></defs>
    <g id="Social-Share" stroke="none" stroke-width="1" fill="none" fill-rule="evenodd">
        <g fill="#FFFFFF" id="Group-2">
            <g>
                <path d="M17.5,35 C7.83501688,35 0,27.1649831 0,17.5 C0,7.83501688 7.83501688,0 17.5,0 C27.1649831,0 35,7.83501688 35,17.5 C35,27.1649831 27.1649831,35 17.5,35 Z M27.8884166,11.1517692 C27.1763621,11.4586892 26.4029237,11.6796716 25.6049317,11.7656092 C26.4274773,11.2745372 27.0535941,10.5010988 27.3482374,9.58033876 C26.5870757,10.0345804 25.7276997,10.366054 24.8314933,10.5379292 C24.1071621,9.76449077 23.0759108,9.28569555 21.9341684,9.28569555 C19.7366211,9.28569555 17.9687619,11.0658316 17.9687619,13.2511021 C17.9687619,13.5580221 18.0055923,13.8649421 18.0669763,14.1595853 C14.7767938,13.9877101 11.8426385,12.4162796 9.89062725,10.0100268 C9.54687684,10.5993132 9.35044804,11.2745372 9.35044804,12.0111452 C9.35044804,13.3861469 10.0502257,14.6015501 11.1183073,15.3136045 C10.4676369,15.2890509 9.85379685,15.1048989 9.32589444,14.8102557 L9.32589444,14.8593629 C9.32589444,16.7868206 10.6886193,18.3828046 12.5055857,18.7511086 C12.1741121,18.8370462 11.8180849,18.8861534 11.4620577,18.8861534 C11.2042449,18.8861534 10.9587089,18.8615998 10.7131729,18.8247694 C11.2165217,20.3961999 12.6774609,21.5379423 14.4207666,21.5747727 C13.0580417,22.6428543 11.3515665,23.2689712 9.49776964,23.2689712 C9.16629603,23.2689712 8.85937602,23.2566944 8.54017922,23.2198639 C10.2957617,24.3493296 12.3828177,25 14.6294722,25 C21.9218916,25 25.9118517,18.9598142 25.9118517,13.7176205 C25.9118517,13.5457453 25.9118517,13.3738701 25.8995749,13.2019949 C26.6730133,12.637262 27.3482374,11.9374844 27.8884166,11.1517692 Z" id="Combined-Shape"></path>
            </g>
        </g>
    </g>
</svg>